<svg width="16" height="16" viewBox="0 0 16 16" fill="none" xmlns="http://www.w3.org/2000/svg">
<g clip-path="url(#clip0_93_1925)">
<path d="M12.6667 8H3.33333C2.59695 8 2 8.65122 2 9.45455V14.5455C2 15.3488 2.59695 16 3.33333 16H12.6667C13.403 16 14 15.3488 14 14.5455V9.45455C14 8.65122 13.403 8 12.6667 8Z" stroke="#1E1E1E" stroke-width="1.2" stroke-linecap="round" stroke-linejoin="round"/>
<path d="M4.66602 7.33331V4.66665C4.66602 3.78259 5.01721 2.93475 5.64233 2.30962C6.26745 1.6845 7.11529 1.33331 7.99935 1.33331C8.8834 1.33331 9.73125 1.6845 10.3564 2.30962C10.9815 2.93475 11.3327 3.78259 11.3327 4.66665V7.33331" stroke="#1E1E1E" stroke-width="1.2" stroke-linecap="round" stroke-linejoin="round"/>
</g>
<defs>
<clipPath id="clip0_93_1925">
<rect width="16" height="16" fill="white"/>
</clipPath>
</defs>
</svg>
