<svg width="24" height="24" viewBox="0 0 24 24" fill="none" xmlns="http://www.w3.org/2000/svg">
<g clip-path="url(#clip0_780_3824)">
<path d="M11.7236 1.25C16.9557 1.25003 21.1973 5.49154 21.1973 10.7236C21.1972 13.6311 19.8859 16.231 17.8242 17.9688L20.6182 21.5381C20.8731 21.8643 20.8153 22.3356 20.4893 22.5908C20.1631 22.846 19.6918 22.7881 19.4365 22.4619L16.6035 18.8428C15.178 19.7014 13.509 20.1973 11.7236 20.1973C6.49154 20.1973 2.25003 15.9557 2.25 10.7236C2.25 5.49152 6.49152 1.25 11.7236 1.25ZM11.7236 2.75C7.31995 2.75 3.75 6.31995 3.75 10.7236C3.75003 15.1273 7.31997 18.6973 11.7236 18.6973C16.1273 18.6972 19.6972 15.1273 19.6973 10.7236C19.6973 6.31997 16.1273 2.75003 11.7236 2.75Z" fill="currentColor"/>
</g>
<defs>
<clipPath id="clip0_780_3824">
<rect width="24" height="24" fill="white"/>
</clipPath>
</defs>
</svg>
