<svg width="12" height="13" viewBox="0 0 12 13" fill="none" xmlns="http://www.w3.org/2000/svg">
<path d="M1.81789 11.0159L1.42388 11.5682V11.5682L1.81789 11.0159ZM1.20637 10.4155L0.66099 10.8191H0.66099L1.20637 10.4155ZM10.1014 10.4155L9.55605 10.0119V10.0119L10.1014 10.4155ZM9.48992 11.0159L9.88392 11.5682V11.5682L9.48992 11.0159ZM9.48992 2.28256L9.88392 1.73022V1.73022L9.48992 2.28256ZM10.1014 2.88296L9.55605 3.28654V3.28654L10.1014 2.88296ZM1.81789 2.28256L2.21189 2.8349L1.81789 2.28256ZM1.20637 2.88296L1.75175 3.28654V3.28654L1.20637 2.88296ZM9.64411 8.31097L9.53985 7.64056V7.64056L9.64411 8.31097ZM7.34641 10.5669L6.6766 10.4588V10.4588L7.34641 10.5669ZM3.99543 6.51354C3.62072 6.51354 3.31696 6.8173 3.31696 7.19201C3.31696 7.56671 3.62072 7.87047 3.99543 7.87047V7.19201V6.51354ZM7.31238 7.87047C7.68709 7.87047 7.99085 7.56671 7.99085 7.19201C7.99085 6.8173 7.68709 6.51354 7.31238 6.51354V7.19201V7.87047ZM6.63391 2.30703C6.63391 2.68174 6.93767 2.9855 7.31238 2.9855C7.68709 2.9855 7.99085 2.68174 7.99085 2.30703H7.31238H6.63391ZM7.99085 0.678711C7.99085 0.304003 7.68709 0.00024271 7.31238 0.00024271C6.93767 0.00024271 6.63391 0.304003 6.63391 0.678711H7.31238H7.99085ZM3.31696 2.30703C3.31696 2.68174 3.62072 2.9855 3.99543 2.9855C4.37013 2.9855 4.67389 2.68174 4.67389 2.30703H3.99543H3.31696ZM4.67389 0.678711C4.67389 0.304003 4.37013 0.00024271 3.99543 0.00024271C3.62072 0.00024271 3.31696 0.304003 3.31696 0.678711H3.99543H4.67389ZM10.6133 8.27755L11.2914 8.30122L10.6133 8.27755ZM5.6539 11.5342V10.8557C4.60259 10.8557 3.86761 10.8548 3.30278 10.7948C2.74992 10.7359 2.44079 10.6268 2.21189 10.4636L1.81789 11.0159L1.42388 11.5682C1.92158 11.9233 2.49398 12.0733 3.15925 12.1441C3.81253 12.2136 4.63227 12.2127 5.6539 12.2127V11.5342ZM0.678471 6.64923H2.38419e-06C2.38419e-06 7.65147 -0.000963271 8.45865 0.0700836 9.10249C0.142614 9.75977 0.29683 10.327 0.66099 10.8191L1.20637 10.4155L1.75175 10.0119C1.58801 9.79065 1.47828 9.49235 1.41883 8.95365C1.3579 8.40151 1.35694 7.68225 1.35694 6.64923H0.678471ZM1.81789 11.0159L2.21189 10.4636C2.03484 10.3373 1.87966 10.1848 1.75175 10.0119L1.20637 10.4155L0.66099 10.8191C0.874068 11.107 1.13161 11.3597 1.42388 11.5682L1.81789 11.0159ZM10.1014 10.4155L9.55605 10.0119C9.42815 10.1848 9.27296 10.3373 9.09592 10.4636L9.48992 11.0159L9.88392 11.5682C10.1762 11.3597 10.4337 11.107 10.6468 10.8191L10.1014 10.4155ZM9.48992 2.28256L9.09592 2.8349C9.27296 2.9612 9.42815 3.1137 9.55605 3.28654L10.1014 2.88296L10.6468 2.47938C10.4337 2.19143 10.1762 1.93871 9.88392 1.73022L9.48992 2.28256ZM1.81789 2.28256L1.42388 1.73022C1.13161 1.93871 0.874068 2.19143 0.66099 2.47938L1.20637 2.88296L1.75175 3.28654C1.87966 3.1137 2.03484 2.9612 2.21189 2.8349L1.81789 2.28256ZM9.64411 8.31097L9.53985 7.64056C8.07371 7.86855 6.91187 9.00045 6.6766 10.4588L7.34641 10.5669L8.01622 10.6749C8.15562 9.81082 8.849 9.12123 9.74836 8.98138L9.64411 8.31097ZM3.99543 7.19201V7.87047H7.31238V7.19201V6.51354H3.99543V7.19201ZM10.6133 8.27755L10.6133 7.59909C10.1348 7.59909 9.81713 7.59744 9.53985 7.64056L9.64411 8.31097L9.74836 8.98138C9.89633 8.95837 10.086 8.95603 10.6133 8.95602L10.6133 8.27755ZM10.6293 6.64923H9.95087C9.95087 7.28752 9.95078 7.80996 9.93529 8.25389L10.6133 8.27755L11.2914 8.30122C11.3079 7.82857 11.3078 7.27987 11.3078 6.64923H10.6293ZM10.6133 8.27755L9.93529 8.25389C9.90031 9.25636 9.78536 9.70205 9.55605 10.0119L10.1014 10.4155L10.6468 10.8191C11.1442 10.147 11.2558 9.32241 11.2914 8.30122L10.6133 8.27755ZM7.31238 11.5185L7.99085 11.5185C7.99085 10.9994 7.99335 10.8167 8.01622 10.6749L7.34641 10.5669L6.6766 10.4588C6.63212 10.7346 6.63392 11.05 6.63391 11.5185L7.31238 11.5185ZM5.6539 11.5342V12.2127C6.29643 12.2127 6.85458 12.2128 7.33519 12.1966L7.31238 11.5185L7.28957 10.8404C6.83663 10.8557 6.3038 10.8557 5.6539 10.8557V11.5342ZM7.31238 11.5185L7.33519 12.1966C8.3732 12.1617 9.20487 12.0526 9.88392 11.5682L9.48992 11.0159L9.09592 10.4636C8.7748 10.6926 8.31271 10.806 7.28957 10.8404L7.31238 11.5185ZM0.678471 6.64923H1.35694C1.35694 6.01094 1.35703 5.4885 1.37252 5.04457L0.694463 5.02091L0.0164075 4.99725C-8.57711e-05 5.46989 2.38419e-06 6.01859 2.38419e-06 6.64923H0.678471ZM0.694463 5.02091L1.37252 5.04457C1.4075 4.0421 1.52245 3.59641 1.75175 3.28654L1.20637 2.88296L0.66099 2.47938C0.163625 3.15149 0.052043 3.97605 0.0164075 4.99725L0.694463 5.02091ZM0.694463 5.02091V5.69938H10.6133V5.02091V4.34244H0.694463V5.02091ZM10.6293 6.64923H11.3078C11.3078 6.01859 11.3079 5.46989 11.2914 4.99725L10.6133 5.02091L9.93529 5.04457C9.95078 5.4885 9.95087 6.01094 9.95087 6.64923H10.6293ZM10.6133 5.02091L11.2914 4.99725C11.2558 3.97605 11.1442 3.15149 10.6468 2.47938L10.1014 2.88296L9.55605 3.28654C9.78536 3.59641 9.90031 4.0421 9.93529 5.04457L10.6133 5.02091ZM7.31238 2.30703H7.99085V1.77996H7.31238H6.63391V2.30703H7.31238ZM7.31238 1.77996H7.99085V0.678711H7.31238H6.63391V1.77996H7.31238ZM5.6539 1.76426V2.44273C6.3038 2.44273 6.83663 2.44281 7.28957 2.45805L7.31238 1.77996L7.33519 1.10188C6.85458 1.08571 6.29643 1.08579 5.6539 1.08579V1.76426ZM7.31238 1.77996L7.28957 2.45805C8.31271 2.49246 8.7748 2.60584 9.09592 2.8349L9.48992 2.28256L9.88392 1.73022C9.20487 1.24583 8.3732 1.13679 7.33519 1.10188L7.31238 1.77996ZM3.99543 2.30703H4.67389V1.77996H3.99543H3.31696V2.30703H3.99543ZM3.99543 1.77996H4.67389V0.678711H3.99543H3.31696V1.77996H3.99543ZM5.6539 1.76426V1.08579C5.01138 1.08579 4.45323 1.08571 3.97262 1.10188L3.99543 1.77996L4.01824 2.45805C4.47118 2.44281 5.004 2.44273 5.6539 2.44273V1.76426ZM3.99543 1.77996L3.97262 1.10188C2.93461 1.13679 2.10294 1.24583 1.42388 1.73022L1.81789 2.28256L2.21189 2.8349C2.53301 2.60584 2.9951 2.49246 4.01824 2.45805L3.99543 1.77996Z" fill="white"/>
</svg>
