<svg width="235" height="188" viewBox="0 0 235 188" fill="none" xmlns="http://www.w3.org/2000/svg">
<path d="M127.5 60C131.124 60 134.062 62.9381 134.062 66.5625C134.062 70.1869 131.124 73.125 127.5 73.125H187.5C191.124 73.125 194.062 76.0631 194.062 79.6875C194.062 83.3119 191.124 86.25 187.5 86.25H208.125C211.749 86.25 214.688 89.1881 214.688 92.8125C214.688 96.4369 211.749 99.375 208.125 99.375H190.312C186.688 99.375 183.75 102.313 183.75 105.938C183.75 109.562 186.688 112.5 190.312 112.5H195.938C199.562 112.5 202.5 115.438 202.5 119.062C202.5 122.687 199.562 125.625 195.938 125.625H147.188C146.705 125.625 146.234 125.573 145.781 125.474C145.328 125.573 144.858 125.625 144.375 125.625H59.0625C55.4381 125.625 52.5 122.687 52.5 119.062C52.5 115.438 55.4381 112.5 59.0625 112.5H22.5C18.8756 112.5 15.9375 109.562 15.9375 105.938C15.9375 102.313 18.8756 99.375 22.5 99.375H60C63.6244 99.375 66.5625 96.4369 66.5625 92.8125C66.5625 89.1881 63.6244 86.25 60 86.25H36.5625C32.9381 86.25 30 83.3119 30 79.6875C30 76.0631 32.9381 73.125 36.5625 73.125H74.0625C70.4381 73.125 67.5 70.1869 67.5 66.5625C67.5 62.9381 70.4381 60 74.0625 60H127.5ZM211.875 112.5C215.499 112.5 218.438 115.438 218.438 119.062C218.438 122.687 215.499 125.625 211.875 125.625C208.251 125.625 205.312 122.687 205.312 119.062C205.312 115.438 208.251 112.5 211.875 112.5Z" fill="#F3F7FF"/>
<path fill-rule="evenodd" clip-rule="evenodd" d="M106.049 105.287C105.975 105.806 105.938 106.336 105.938 106.875C105.938 113.088 110.974 118.125 117.188 118.125C123.401 118.125 128.438 113.088 128.438 106.875C128.438 106.336 128.4 105.806 128.326 105.287H155.625V130.312C155.625 131.865 154.366 133.125 152.812 133.125H81.5625C80.0092 133.125 78.75 131.865 78.75 130.312V105.287H106.049Z" fill="white"/>
<path fill-rule="evenodd" clip-rule="evenodd" d="M129.375 105C129.375 111.731 123.918 117.188 117.188 117.188C110.457 117.188 105 111.731 105 105C105 104.782 105.006 104.565 105.017 104.35H78.75L87.7129 77.8489C88.0993 76.7065 89.1711 75.9375 90.3772 75.9375H143.998C145.204 75.9375 146.276 76.7065 146.662 77.8489L155.625 104.35H129.358C129.369 104.565 129.375 104.782 129.375 105Z" fill="white"/>
<path fill-rule="evenodd" clip-rule="evenodd" d="M127.591 105.895C127.591 111.096 122.933 116.25 117.188 116.25C111.442 116.25 106.784 111.096 106.784 105.895C106.784 105.726 106.788 104.621 106.798 104.455H87.1875L94.8388 85.852C95.1686 84.9692 96.0836 84.375 97.1131 84.375H137.262C138.291 84.375 139.206 84.9692 139.536 85.852L147.188 104.455H127.577C127.587 104.621 127.591 105.726 127.591 105.895Z" fill="#E8F0FE"/>
<path fill-rule="evenodd" clip-rule="evenodd" d="M79.9219 104.543V129.375C79.9219 130.281 80.6564 131.016 81.5625 131.016H152.812C153.719 131.016 154.453 130.281 154.453 129.375V104.543L145.552 78.2244C145.327 77.5579 144.701 77.1094 143.998 77.1094H90.3772C89.6736 77.1094 89.0484 77.5579 88.823 78.2244L79.9219 104.543Z" stroke="#1F64E7" stroke-width="2.34375"/>
<path d="M91.875 104.062C95.5655 104.062 99.5483 104.062 103.823 104.062C105.582 104.062 105.582 105.299 105.582 105.938C105.582 112.151 110.735 117.188 117.091 117.188C123.447 117.188 128.6 112.151 128.6 105.938C128.6 105.299 128.6 104.062 130.359 104.062H153.75M84.9129 104.062H87.1875H84.9129Z" stroke="#1F64E7" stroke-width="2.34375" stroke-linecap="round" stroke-linejoin="round"/>
<path d="M140.718 54.6588L130.312 66.3336M116.343 50.625V66.3336V50.625ZM91.875 54.6588L102.281 66.3336L91.875 54.6588Z" stroke="#75A4FE" stroke-width="2.34375" stroke-linecap="round" stroke-linejoin="round"/>
</svg>
