<svg viewBox="0 0 11 13" fill="none" xmlns="http://www.w3.org/2000/svg">
<path d="M6.77382 10.343L6.25889 9.90122V9.90122L6.77382 10.343ZM3.62936 10.343L4.14429 9.90122L3.62936 10.343ZM5.20159 11.5342V10.8557V11.5342ZM9.72471 5.12763H9.04624C9.04624 5.66432 8.72902 6.44693 8.16205 7.36314C7.61371 8.24924 6.90109 9.15268 6.25889 9.90122L6.77382 10.343L7.28875 10.7848C7.95246 10.0112 8.71529 9.04779 9.31592 8.07718C9.89791 7.13669 10.4032 6.0727 10.4032 5.12763H9.72471ZM3.62936 10.343L4.14429 9.90122C3.50208 9.15268 2.78946 8.24924 2.24113 7.36314C1.67416 6.44693 1.35694 5.66432 1.35694 5.12763H0.678467H-1.43051e-06C-1.43051e-06 6.0727 0.505262 7.13669 1.08726 8.07718C1.68789 9.04779 2.45071 10.0112 3.11443 10.7848L3.62936 10.343ZM0.678467 5.12763H1.35694C1.35694 3.0558 3.06762 1.35718 5.20159 1.35718V0.678711V0.00024271C2.33945 0.00024271 -1.43051e-06 2.28531 -1.43051e-06 5.12763H0.678467ZM5.20159 0.678711V1.35718C7.33556 1.35718 9.04624 3.0558 9.04624 5.12763H9.72471H10.4032C10.4032 2.28531 8.06372 0.00024271 5.20159 0.00024271V0.678711ZM6.77382 10.343L6.25889 9.90122C5.90287 10.3162 5.68972 10.5612 5.50515 10.7144C5.35178 10.8418 5.27715 10.8557 5.20159 10.8557V11.5342V12.2127C5.67628 12.2127 6.04711 12.0281 6.37197 11.7584C6.66562 11.5146 6.96345 11.1639 7.28875 10.7848L6.77382 10.343ZM3.62936 10.343L3.11443 10.7848C3.43972 11.1639 3.73756 11.5146 4.03121 11.7584C4.35606 12.0281 4.7269 12.2127 5.20159 12.2127V11.5342V10.8557C5.12602 10.8557 5.0514 10.8418 4.89803 10.7144C4.71346 10.5612 4.5003 10.3162 4.14429 9.90122L3.62936 10.343ZM3.50542 5.32985H2.82695C2.82695 6.61692 3.94879 7.5587 5.20159 7.5587V6.88023V6.20176C4.58085 6.20176 4.18389 5.75529 4.18389 5.32985H3.50542ZM5.20159 6.88023V7.5587C6.45439 7.5587 7.57623 6.61692 7.57623 5.32985H6.89776H6.21929C6.21929 5.75529 5.82233 6.20176 5.20159 6.20176V6.88023ZM6.89776 5.32985H7.57623C7.57623 4.04279 6.45438 3.101 5.20159 3.101V3.77947V4.45794C5.82233 4.45794 6.21929 4.90441 6.21929 5.32985H6.89776ZM5.20159 3.77947V3.101C3.94879 3.101 2.82695 4.04279 2.82695 5.32985H3.50542H4.18389C4.18389 4.90441 4.58085 4.45794 5.20159 4.45794V3.77947Z" fill="#cacacaff"/>
</svg>
