<svg viewBox="0 0 31 31" fill="none" xmlns="http://www.w3.org/2000/svg">
<path d="M24.6056 18.435L23.3333 16.3231C23.0662 15.8523 22.8244 14.9617 22.8244 14.4401V11.2213C22.8244 8.23146 21.0687 5.64876 18.5369 4.44011C17.8753 3.26962 16.6539 2.54443 15.2544 2.54443C13.8677 2.54443 12.6209 3.29507 11.9593 4.47828C9.47836 5.71237 7.76081 8.26962 7.76081 11.2213V14.4401C7.76081 14.9617 7.51908 15.8523 7.2519 16.3103L5.96691 18.435C5.45801 19.2874 5.3435 20.2289 5.66157 21.0941C5.96691 21.9465 6.69211 22.608 7.63358 22.9261C10.1018 23.7658 12.6972 24.1729 15.2926 24.1729C17.888 24.1729 20.4835 23.7658 22.9516 22.9388C23.8422 22.6462 24.5293 21.9719 24.86 21.0941C25.1908 20.2162 25.1018 19.2493 24.6056 18.435Z" />
<path d="M18.8677 25.458C18.3333 26.9339 16.9211 27.9898 15.2672 27.9898C14.2621 27.9898 13.2697 27.5827 12.57 26.8575C12.1628 26.4758 11.8575 25.9669 11.6794 25.4453C11.8448 25.4708 12.0102 25.4835 12.1883 25.5089C12.4809 25.5471 12.7863 25.5853 13.0916 25.6107C13.8168 25.6743 14.5547 25.7125 15.2926 25.7125C16.0178 25.7125 16.743 25.6743 17.4555 25.6107C17.7226 25.5853 17.9898 25.5725 18.2443 25.5344C18.4478 25.5089 18.6514 25.4835 18.8677 25.458Z" />
</svg>
