<svg width="116" height="109" viewBox="0 0 116 109" fill="none" xmlns="http://www.w3.org/2000/svg">
<path d="M93.4998 65C81.3448 65 71.4998 74.845 71.4998 87C71.4998 91.125 72.6549 95.03 74.6898 98.33C78.4848 104.71 85.4698 109 93.4998 109C101.53 109 108.515 104.71 112.31 98.33C114.345 95.03 115.5 91.125 115.5 87C115.5 74.845 105.655 65 93.4998 65ZM104.885 84.635L93.1698 95.47C92.3998 96.185 91.3547 96.57 90.3647 96.57C89.3197 96.57 88.2749 96.185 87.4499 95.36L82.0046 89.915C80.4096 88.32 80.4096 85.68 82.0046 84.085C83.5996 82.49 86.2396 82.49 87.8346 84.085L90.4748 86.725L99.2747 78.585C100.925 77.045 103.565 77.155 105.105 78.805C106.645 80.455 106.535 83.04 104.885 84.635Z" fill="white"/>
<path d="M110 22.9179V31H0V22.9179C0 10.2411 10.2301 0 22.8251 0H87.1749C99.7699 0 110 10.2411 110 22.9179Z" fill="white"/>
<path d="M0 32V73.03C0 85.625 10.1751 95.8 22.7701 95.8H57.2001C60.3901 95.8 63.14 93.105 62.865 89.915C62.095 81.5 64.7901 72.37 72.2701 65.11C75.3501 62.085 79.1451 59.775 83.2701 58.455C90.1451 56.255 96.7999 56.53 102.685 58.51C106.26 59.72 110 57.135 110 53.34V32H0ZM33 77.375H22C19.745 77.375 17.875 75.505 17.875 73.25C17.875 70.995 19.745 69.125 22 69.125H33C35.255 69.125 37.125 70.995 37.125 73.25C37.125 75.505 35.255 77.375 33 77.375Z" fill="white"/>
<path d="M36.625 73.25C36.625 75.505 34.755 77.375 32.5 77.375H21.5C19.245 77.375 17.375 75.505 17.375 73.25C17.375 70.995 19.245 69.125 21.5 69.125H32.5C34.755 69.125 36.625 70.995 36.625 73.25Z" fill="white"/>
</svg>
